<svg xmlns="http://www.w3.org/2000/svg" viewBox="0 0 27 27" height="27" width="27"><title>airfield-15.svg</title><rect fill="none" x="0" y="0" width="27" height="27"></rect><rect x="1" y="1" rx="12.5" ry="12.5" width="25" height="25" stroke="#ffffff" style="stroke-linejoin:round;stroke-miterlimit:4;" fill="#ffffff" stroke-width="2"></rect><rect x="1" y="1" width="25" height="25" rx="12.5" ry="12.5" fill="#90bafb"></rect><path fill="#ffffff" transform="translate(6 6)" d="M6.8182,0.6818H4.7727
	C4.0909,0.6818,4.0909,0,4.7727,0h5.4545c0.6818,0,0.6818,0.6818,0,0.6818H8.1818c0,0,0.8182,0.5909,0.8182,1.9545V4h6v2L9,8l-0.5,5
	l2.5,1.3182V15H4v-0.6818L6.5,13L6,8L0,6V4h6V2.6364C6,1.2727,6.8182,0.6818,6.8182,0.6818z"></path></svg>