<svg xmlns="http://www.w3.org/2000/svg" width="11" height="11" viewBox="0 0 11 11">
  <title>pictos_11px</title>
  <rect x="0.7679" y="9.3301" width="1" height="1" transform="translate(5.0849 0.683) rotate(30)"/>
  <rect x="1.2679" y="8.4641" width="1" height="1" transform="translate(4.7189 0.317) rotate(30)"/>
  <rect x="1.7679" y="7.5981" width="1" height="1" transform="translate(4.3529 -0.049) rotate(30)"/>
  <rect x="2.2679" y="6.7321" width="1" height="1" transform="translate(3.9869 -0.4151) rotate(30)"/>
  <rect x="3.134" y="7.2321" width="1" height="1" transform="matrix(0.866, 0.5, -0.5, 0.866, 4.3529, -0.7811)"/>
  <path d="M4.317,7.549l-.866-.5.5-.866A1.0029,1.0029,0,0,1,4.317,7.549Z"/>
  <rect x="2.634" y="8.0981" width="1" height="1" transform="matrix(0.866, 0.5, -0.5, 0.866, 4.7189, -0.4151)"/>
  <rect x="2.134" y="8.9641" width="1" height="1" transform="matrix(0.866, 0.5, -0.5, 0.866, 5.0849, -0.049)"/>
  <path d="M2.817,10.1471a1.0029,1.0029,0,0,1-1.366.366l.5-.866Z"/>
  <rect x="2.7679" y="5.866" width="1" height="1" transform="translate(3.6208 -0.7811) rotate(30)"/>
  <rect x="3.2679" y="5" width="1" height="1" transform="translate(3.2548 -1.1471) rotate(30)"/>
  <rect x="4.134" y="5.5" width="1" height="1" transform="translate(-2.8792 7.0131) rotate(-60)"/>
  <rect x="5" y="6" width="1" height="1" transform="translate(3.9869 -1.8792) rotate(30)"/>
  <rect x="5.866" y="6.5" width="1" height="1" transform="matrix(0.866, 0.5, -0.5, 0.866, 4.3529, -2.2452)"/>
  <rect x="3.7679" y="4.134" width="1" height="1" transform="translate(2.8888 -1.5131) rotate(30)"/>
  <rect x="4.634" y="4.634" width="1" height="1" transform="matrix(0.866, 0.5, -0.5, 0.866, 3.2548, -1.8792)"/>
  <rect x="5.5" y="5.134" width="1" height="1" transform="translate(3.6208 -2.2452) rotate(30)"/>
  <rect x="6.366" y="5.634" width="1" height="1" transform="matrix(0.866, 0.5, -0.5, 0.866, 3.9869, -2.6112)" fill="#fff"/>
  <rect x="4.2679" y="3.2679" width="1" height="1" transform="translate(2.5228 -1.8792) rotate(30)"/>
  <rect x="5.134" y="3.7679" width="1" height="1" transform="matrix(0.866, 0.5, -0.5, 0.866, 2.8888, -2.2452)"/>
  <rect x="6" y="4.2679" width="1" height="1" transform="translate(3.2548 -2.6112) rotate(30)"/>
  <rect x="6.866" y="4.7679" width="1" height="1" transform="matrix(0.866, 0.5, -0.5, 0.866, 3.6208, -2.9772)" fill="#fff"/>
  <rect x="7.366" y="3.9019" width="1" height="1" transform="translate(3.2548 -3.3433) rotate(30)" fill="#fff"/>
  <rect x="7.866" y="3.0359" width="1" height="1" transform="translate(2.8888 -3.7093) rotate(30)" fill="#fff"/>
  <rect x="7" y="2.5359" width="1" height="1" transform="translate(2.5228 -3.3433) rotate(30)"/>
  <rect x="8.366" y="2.1699" width="1" height="1" transform="translate(2.5228 -4.0753) rotate(30)"/>
  <rect x="6.7321" y="7" width="1" height="1" transform="translate(4.7189 -2.6112) rotate(30)"/>
  <rect x="7.2321" y="6.134" width="1" height="1" transform="translate(4.3529 -2.9772) rotate(30)"/>
  <rect x="7.7321" y="5.2679" width="1" height="1" transform="translate(3.9869 -3.3433) rotate(30)"/>
  <rect x="8.2321" y="4.4019" width="1" height="1" transform="translate(3.6208 -3.7093) rotate(30)"/>
  <rect x="8.7321" y="3.5359" width="1" height="1" transform="translate(3.2548 -4.0753) rotate(30)"/>
  <rect x="9.2321" y="2.6699" width="1" height="1" transform="translate(2.8888 -4.4413) rotate(30)"/>
  <rect x="7.5" y="1.6699" width="1" height="1" transform="translate(2.1567 -3.7093) rotate(30)"/>
  <path d="M7.817,1.4869l-.5.866-.866-.5.365-.6322A1.9941,1.9941,0,0,1,7.817,1.4869Z"/>
  <path d="M6.816,1.2207l-.365.6322-.6322-.365A2.1256,2.1256,0,0,1,6.816,1.2207Z"/>
  <rect x="6.134" y="2.0359" width="1" height="1" transform="matrix(0.866, 0.5, -0.5, 0.866, 2.1567, -2.9772)"/>
  <path d="M6.451,1.8529l-.5.866-.8661-.5a1.9944,1.9944,0,0,1,.7339-.731Z"/>
  <rect x="4.7679" y="2.4019" width="1" height="1" transform="translate(2.1567 -2.2452) rotate(30)"/>
  <rect x="5.634" y="2.9019" width="1" height="1" transform="matrix(0.866, 0.5, -0.5, 0.866, 2.5228, -2.6112)"/>
  <rect x="6.5" y="3.4019" width="1" height="1" transform="translate(2.8888 -2.9772) rotate(30)"/>
  <circle cx="1.951" cy="9.6471" r="1"/>
  <circle cx="3.451" cy="7.049" r="1"/>
  <circle cx="6.634" cy="2.5359" r="0.5" fill="#fff"/>
</svg>
