<?xml version="1.0" encoding="UTF-8" standalone="no"?>
<svg
   id="charging-station"
   height="21"
   viewBox="0 0 21 21"
   width="21"
   version="1.1"
   xmlns="http://www.w3.org/2000/svg"
   xmlns:svg="http://www.w3.org/2000/svg">
  <defs
     id="defs30" />
  <circle
     style="fill:#5c6f84;fill-opacity:1;stroke-width:2.09031"
     id="path1308"
     cx="10.5"
     cy="10.5"
     r="10.5" />
  <path
     d="m 5.395804,10.734324 5.106631,-6.9635878 c 0.15559,-0.212178 0.40297,-0.337532 0.66608,-0.337532 0.54464,0 0.9402,0.51788 0.7969,1.04333 l -1.12934,4.14089 c -0.04337,0.15904 0.07635,0.31578 0.24119,0.31578 h 3.41929 c 0.4161,0 0.7534,0.3372998 0.7534,0.7533698 0,0.16024 -0.0511,0.3163 -0.1458,0.44551 l -5.10668,6.96362 c -0.15559,0.2121 -0.40297,0.3375 -0.66608,0.3375 -0.5446402,0 -0.9402002,-0.5179 -0.7969002,-1.0433 l 1.1293402,-4.14092 c 0.04337,-0.15904 -0.07635,-0.31578 -0.24119,-0.31578 H 6.003324 c -0.41608,0 -0.75337,-0.33729 -0.75337,-0.75337 0,-0.16024 0.05109,-0.3163 0.14585,-0.44551 z"
     id="path25"
     style="fill:#ffffff" />
</svg>
