<svg xmlns="http://www.w3.org/2000/svg" width="11" height="11" viewBox="0 0 11 11">
  <title>pictos_11px</title>
  <rect x="1.6923" y="2.5385" width="0.8462" height="0.8462"/>
  <rect x="0.8462" y="2.5385" width="0.8462" height="0.8462"/>
  <path d="M.8462,2.5385v.8461H.4231A.419.419,0,0,1,0,2.9615v-.423Z"/>
  <rect y="1.6923" width="0.8462" height="0.8462"/>
  <rect y="0.8462" width="0.8462" height="0.8462"/>
  <path d="M.8462.4231V.8462H0V.4231A.4189.4189,0,0,1,.4231,0,.419.419,0,0,1,.8462.4231Z"/>
  <rect x="2.5385" y="2.5385" width="0.8462" height="0.8462"/>
  <rect x="3.3846" y="2.5385" width="0.8462" height="0.8462"/>
  <rect x="4.2308" y="2.5385" width="0.8462" height="0.8462"/>
  <rect x="5.0769" y="2.5385" width="0.8462" height="0.8462"/>
  <rect x="5.0769" y="3.3846" width="0.8462" height="0.8462"/>
  <rect x="5.0769" y="4.2308" width="0.8462" height="0.8462"/>
  <rect x="5.0769" y="5.0769" width="0.8462" height="0.8462"/>
  <rect x="4.2308" y="5.0769" width="0.8462" height="0.8462"/>
  <rect x="3.3846" y="5.0769" width="0.8462" height="0.8462"/>
  <rect x="2.5385" y="5.0769" width="0.8462" height="0.8462"/>
  <rect x="7.6154" y="5.0769" width="0.8462" height="0.8462"/>
  <rect x="6.7692" y="5.0769" width="0.8462" height="0.8462"/>
  <rect x="5.9231" y="5.0769" width="0.8462" height="0.8462"/>
  <rect x="5.0769" y="5.9231" width="0.8462" height="0.8462"/>
  <rect x="4.2308" y="5.9231" width="0.8462" height="0.8462"/>
  <rect x="3.3846" y="5.9231" width="0.8462" height="0.8462"/>
  <rect x="2.5385" y="5.9231" width="0.8462" height="0.8462"/>
  <rect x="7.6154" y="5.9231" width="0.8462" height="0.8462"/>
  <rect x="6.7692" y="5.9231" width="0.8462" height="0.8462"/>
  <rect x="5.9231" y="5.9231" width="0.8462" height="0.8462"/>
  <rect x="5.0769" y="6.7692" width="0.8462" height="0.8462"/>
  <rect x="4.2308" y="6.7692" width="0.8462" height="0.8462"/>
  <rect x="3.3846" y="6.7692" width="0.8462" height="0.8462"/>
  <rect x="2.5385" y="6.7692" width="0.8462" height="0.8462"/>
  <rect x="7.6154" y="6.7692" width="0.8462" height="0.8462"/>
  <rect x="6.7692" y="6.7692" width="0.8462" height="0.8462"/>
  <rect x="5.9231" y="6.7692" width="0.8462" height="0.8462"/>
  <rect x="5.0769" y="7.6154" width="0.8462" height="0.8462"/>
  <rect x="4.2308" y="7.6154" width="0.8462" height="0.8462"/>
  <rect x="3.3846" y="7.6154" width="0.8462" height="0.8462"/>
  <rect x="2.5385" y="7.6154" width="0.8462" height="0.8462"/>
  <rect x="7.6154" y="7.6154" width="0.8462" height="0.8462"/>
  <rect x="6.7692" y="7.6154" width="0.8462" height="0.8462"/>
  <rect x="5.9231" y="7.6154" width="0.8462" height="0.8462"/>
  <rect x="5.0769" y="8.4615" width="0.8462" height="0.8462"/>
  <rect x="4.2308" y="8.4615" width="0.8462" height="0.8462"/>
  <rect x="3.3846" y="8.4615" width="0.8462" height="0.8462"/>
  <rect x="2.5385" y="8.4615" width="0.8462" height="0.8462"/>
  <rect x="7.6154" y="8.4615" width="0.8462" height="0.8462"/>
  <rect x="6.7692" y="8.4615" width="0.8462" height="0.8462"/>
  <rect x="5.9231" y="8.4615" width="0.8462" height="0.8462"/>
  <rect x="5.0769" y="9.3077" width="0.8462" height="0.8462"/>
  <rect x="4.2308" y="9.3077" width="0.8462" height="0.8462"/>
  <rect x="3.3846" y="9.3077" width="0.8462" height="0.8462"/>
  <rect x="2.5385" y="9.3077" width="0.8462" height="0.8462"/>
  <rect x="7.6154" y="9.3077" width="0.8462" height="0.8462"/>
  <rect x="6.7692" y="9.3077" width="0.8462" height="0.8462"/>
  <rect x="5.9231" y="9.3077" width="0.8462" height="0.8462"/>
  <rect x="5.0769" y="10.1538" width="0.8462" height="0.8462"/>
  <rect x="4.2308" y="10.1538" width="0.8462" height="0.8462"/>
  <rect x="3.3846" y="10.1538" width="0.8462" height="0.8462"/>
  <rect x="2.5385" y="10.1538" width="0.8462" height="0.8462"/>
  <rect x="7.6154" y="10.1538" width="0.8462" height="0.8462"/>
  <rect x="6.7692" y="10.1538" width="0.8462" height="0.8462"/>
  <rect x="5.9231" y="10.1538" width="0.8462" height="0.8462"/>
  <rect x="5.9231" y="2.5385" width="0.8462" height="0.8462"/>
  <rect x="6.7692" y="2.5385" width="0.8462" height="0.8462"/>
  <rect x="7.6154" y="2.5385" width="0.8462" height="0.8462"/>
  <rect x="8.4615" y="2.5385" width="0.8462" height="0.8462"/>
  <rect x="9.3077" y="2.5385" width="0.8462" height="0.8462"/>
  <path d="M11,2.5385v.423a.419.419,0,0,1-.4231.4231h-.4231V2.5385Z"/>
  <rect x="10.1538" y="1.6923" width="0.8462" height="0.8462"/>
  <rect x="10.1538" y="0.8462" width="0.8462" height="0.8462"/>
  <path d="M11,.4231V.8462h-.8462V.4231a.4231.4231,0,0,1,.8462,0Z"/>
  <circle cx="10.5769" cy="0.4231" r="0.4231"/>
  <path d="M2.5385,11H.3848a.2538.2538,0,0,1-.2332-.3537L2.5385,5.0769Z"/>
  <path d="M10.8093,10.6333A.3631.3631,0,0,1,10.4427,11h-1.98V5.0747l2.2879,5.3533c.0074.022.0221.0366.0294.0587A.3281.3281,0,0,1,10.8093,10.6333Z"/>
  <path d="M5.5,5.9231A2.1154,2.1154,0,1,0,7.6154,8.0385,2.1153,2.1153,0,0,0,5.5,5.9231Zm0,3.3846A1.2693,1.2693,0,1,1,6.7692,8.0385,1.2692,1.2692,0,0,1,5.5,9.3077Z" fill="#fff"/>
</svg>
