<svg xmlns="http://www.w3.org/2000/svg" width="15" height="15" viewBox="0 0 15 15">
  <title>Grille_pictos_Maps</title>
  <g>
    <rect x="2.3077" y="3.4615" width="1.1538" height="1.1538"/>
    <rect x="1.1538" y="3.4615" width="1.1538" height="1.1538"/>
    <path d="M1.1538,3.4615V4.6154H.5769A.5713.5713,0,0,1,0,4.0385v-.577Z"/>
    <rect y="2.3077" width="1.1538" height="1.1538"/>
    <rect y="1.1538" width="1.1538" height="1.1538"/>
    <path d="M1.1538.5769v.5769H0V.5769A.5713.5713,0,0,1,.5769,0,.5713.5713,0,0,1,1.1538.5769Z"/>
    <rect x="3.4615" y="3.4615" width="1.1538" height="1.1538"/>
    <rect x="4.6154" y="3.4615" width="1.1538" height="1.1538"/>
    <rect x="5.7692" y="3.4615" width="1.1538" height="1.1538"/>
    <rect x="6.9231" y="3.4615" width="1.1538" height="1.1538"/>
    <rect x="6.9231" y="4.6154" width="1.1538" height="1.1538"/>
    <rect x="6.9231" y="5.7692" width="1.1538" height="1.1538"/>
    <rect x="6.9231" y="6.9231" width="1.1538" height="1.1538"/>
    <rect x="5.7692" y="6.9231" width="1.1538" height="1.1538"/>
    <rect x="4.6154" y="6.9231" width="1.1538" height="1.1538"/>
    <rect x="3.4615" y="6.9231" width="1.1538" height="1.1538"/>
    <rect x="10.3846" y="6.9231" width="1.1538" height="1.1538"/>
    <rect x="9.2308" y="6.9231" width="1.1538" height="1.1538"/>
    <rect x="8.0769" y="6.9231" width="1.1538" height="1.1538"/>
    <rect x="6.9231" y="8.0769" width="1.1538" height="1.1538"/>
    <rect x="5.7692" y="8.0769" width="1.1538" height="1.1538"/>
    <rect x="4.6154" y="8.0769" width="1.1538" height="1.1538"/>
    <rect x="3.4615" y="8.0769" width="1.1538" height="1.1538"/>
    <rect x="10.3846" y="8.0769" width="1.1538" height="1.1538"/>
    <rect x="9.2308" y="8.0769" width="1.1538" height="1.1538"/>
    <rect x="8.0769" y="8.0769" width="1.1538" height="1.1538"/>
    <rect x="6.9231" y="9.2308" width="1.1538" height="1.1538"/>
    <rect x="5.7692" y="9.2308" width="1.1538" height="1.1538"/>
    <rect x="4.6154" y="9.2308" width="1.1538" height="1.1538"/>
    <rect x="3.4615" y="9.2308" width="1.1538" height="1.1538"/>
    <rect x="10.3846" y="9.2308" width="1.1538" height="1.1538"/>
    <rect x="9.2308" y="9.2308" width="1.1538" height="1.1538"/>
    <rect x="8.0769" y="9.2308" width="1.1538" height="1.1538"/>
    <rect x="6.9231" y="10.3846" width="1.1538" height="1.1538"/>
    <rect x="5.7692" y="10.3846" width="1.1538" height="1.1538"/>
    <rect x="4.6154" y="10.3846" width="1.1538" height="1.1538"/>
    <rect x="3.4615" y="10.3846" width="1.1538" height="1.1538"/>
    <rect x="10.3846" y="10.3846" width="1.1538" height="1.1538"/>
    <rect x="9.2308" y="10.3846" width="1.1538" height="1.1538"/>
    <rect x="8.0769" y="10.3846" width="1.1538" height="1.1538"/>
    <rect x="6.9231" y="11.5385" width="1.1538" height="1.1538"/>
    <rect x="5.7692" y="11.5385" width="1.1538" height="1.1538"/>
    <rect x="4.6154" y="11.5385" width="1.1538" height="1.1538"/>
    <rect x="3.4615" y="11.5385" width="1.1538" height="1.1538"/>
    <rect x="10.3846" y="11.5385" width="1.1538" height="1.1538"/>
    <rect x="9.2308" y="11.5385" width="1.1538" height="1.1538"/>
    <rect x="8.0769" y="11.5385" width="1.1538" height="1.1538"/>
    <rect x="6.9231" y="12.6923" width="1.1538" height="1.1538"/>
    <rect x="5.7692" y="12.6923" width="1.1538" height="1.1538"/>
    <rect x="4.6154" y="12.6923" width="1.1538" height="1.1538"/>
    <rect x="3.4615" y="12.6923" width="1.1538" height="1.1538"/>
    <rect x="10.3846" y="12.6923" width="1.1538" height="1.1538"/>
    <rect x="9.2308" y="12.6923" width="1.1538" height="1.1538"/>
    <rect x="8.0769" y="12.6923" width="1.1538" height="1.1538"/>
    <rect x="6.9231" y="13.8462" width="1.1538" height="1.1538"/>
    <rect x="5.7692" y="13.8462" width="1.1538" height="1.1538"/>
    <rect x="4.6154" y="13.8462" width="1.1538" height="1.1538"/>
    <rect x="3.4615" y="13.8462" width="1.1538" height="1.1538"/>
    <rect x="10.3846" y="13.8462" width="1.1538" height="1.1538"/>
    <rect x="9.2308" y="13.8462" width="1.1538" height="1.1538"/>
    <rect x="8.0769" y="13.8462" width="1.1538" height="1.1538"/>
    <rect x="8.0769" y="3.4615" width="1.1538" height="1.1538"/>
    <rect x="9.2308" y="3.4615" width="1.1538" height="1.1538"/>
    <rect x="10.3846" y="3.4615" width="1.1538" height="1.1538"/>
    <rect x="11.5385" y="3.4615" width="1.1538" height="1.1538"/>
    <rect x="12.6923" y="3.4615" width="1.1538" height="1.1538"/>
    <path d="M15,3.4615v.577a.5713.5713,0,0,1-.5769.5769h-.5769V3.4615Z"/>
    <rect x="13.8462" y="2.3077" width="1.1538" height="1.1538"/>
    <rect x="13.8462" y="1.1538" width="1.1538" height="1.1538"/>
    <path d="M15,.5769v.5769H13.8462V.5769A.5769.5769,0,1,1,15,.5769Z"/>
    <circle cx="14.4231" cy="0.5769" r="0.5769"/>
    <path d="M3.4615,15H.5248a.346.346,0,0,1-.3181-.4823L3.4615,6.9231Z"/>
    <path d="M14.74,14.5a.4951.4951,0,0,1-.5.5h-2.7V6.92l3.12,7.3c.01.03.03.05.04.08A.4477.4477,0,0,1,14.74,14.5Z"/>
    <path d="M7.5,8.0769a2.8847,2.8847,0,1,0,2.8846,2.8846A2.8846,2.8846,0,0,0,7.5,8.0769Zm0,4.6154a1.7308,1.7308,0,1,1,1.7308-1.7308A1.7308,1.7308,0,0,1,7.5,12.6923Z" fill="#fff"/>
  </g>
</svg>
