<svg width="11" height="11" viewBox="0 0 11 11" fill="none" xmlns="http://www.w3.org/2000/svg">
<g clip-path="url(#clip0_307_9)">
<path d="M6.03518 0.302139C5.58445 0.75287 5.22017 1.39914 5.10714 1.96429C5.04537 2.27315 5.01761 3.00581 5.00892 3.36375C5.17239 3.45967 5.33593 3.53534 5.5 3.65839C5.67375 3.52807 5.84258 3.43914 6.01562 3.33919C6.0294 3.02907 6.0456 2.37914 6.08928 2.16072C6.17268 1.74373 6.3877 1.32462 6.72268 0.989639L6.03518 0.302139ZM0.392853 0.78572C0.813929 2.35715 2.63509 3.14286 4.32142 2.35715C3.6117 0.78572 2.35714 0.284489 0.392853 0.78572ZM1.57142 4.12501C1.08868 4.63106 0.78571 5.50001 0.78571 6.28572C0.78571 7.85715 2.35714 10.6071 3.92857 10.6071C4.37136 10.6071 4.71428 10.4107 5.5 10.0179C6.28571 10.4107 6.62863 10.6071 7.07142 10.6071C8.64285 10.6071 10.2143 7.85715 10.2143 6.28572C10.2143 5.50001 9.95793 4.63106 9.42857 4.12501C8.62537 3.35717 7.07142 3.33909 5.5 4.51767C3.92857 3.40694 2.35714 3.25647 1.57142 4.12501Z" fill="#297A52"/>
</g>
<defs>
<clipPath id="clip0_307_9">
<rect width="11" height="11" fill="white"/>
</clipPath>
</defs>
</svg>
