<svg width="15" height="15" viewBox="0 0 15 15" fill="none" xmlns="http://www.w3.org/2000/svg">
<path d="M8.2298 0.412003C7.61517 1.02664 7.11843 1.90791 6.96429 2.67857C6.88006 3.09975 6.84221 4.09882 6.83036 4.58692C7.05328 4.71773 7.27628 4.82091 7.50001 4.98871C7.73695 4.811 7.96716 4.68974 8.20313 4.55344C8.22192 4.13054 8.24401 3.24427 8.30358 2.94643C8.4173 2.37781 8.71051 1.8063 9.1673 1.3495L8.2298 0.412003ZM0.535721 1.07143C1.10992 3.21429 3.59331 4.28572 5.89286 3.21429C4.92506 1.07143 3.21429 0.387934 0.535721 1.07143ZM2.14286 5.625C1.48457 6.31507 1.07144 7.5 1.07144 8.57143C1.07144 10.7143 3.21429 14.4643 5.35715 14.4643C5.96096 14.4643 6.42858 14.1964 7.50001 13.6607C8.57144 14.1964 9.03905 14.4643 9.64286 14.4643C11.7857 14.4643 13.9286 10.7143 13.9286 8.57143C13.9286 7.5 13.579 6.31507 12.8572 5.625C11.7619 4.57795 9.64286 4.55331 7.50001 6.16045C5.35715 4.64582 3.21429 4.44064 2.14286 5.625Z" fill="#297A52"/>
</svg>
