<svg width="27" height="27" viewBox="0 0 27 27" fill="none" xmlns="http://www.w3.org/2000/svg">
<path d="M14.6941 6C14.0795 6.61463 13.5827 7.49591 13.4286 8.26657C13.3443 8.68775 13.3065 9.68682 13.2946 10.1749C13.5176 10.3057 13.7406 10.4089 13.9643 10.5767C14.2012 10.399 14.4314 10.2777 14.6674 10.1414C14.6862 9.71854 14.7083 8.83227 14.7679 8.53443C14.8816 7.96581 15.1748 7.3943 15.6316 6.9375L14.6941 6ZM7 6.65943C7.5742 8.80229 10.0576 9.87371 12.3571 8.80229C11.3893 6.65943 9.67857 5.97593 7 6.65943ZM8.60714 11.213C7.94885 11.9031 7.53571 13.088 7.53571 14.1594C7.53571 16.3023 9.67857 20.0523 11.8214 20.0523C12.4252 20.0523 12.8929 19.7844 13.9643 19.2487C15.0357 19.7844 15.5033 20.0523 16.1071 20.0523C18.25 20.0523 20.3929 16.3023 20.3929 14.1594C20.3929 13.088 20.0433 11.9031 19.3214 11.213C18.2262 10.166 16.1071 10.1413 13.9643 11.7484C11.8214 10.2338 9.67857 10.0286 8.60714 11.213Z" fill="#297A52"/>
</svg>
