<svg xmlns="http://www.w3.org/2000/svg" viewBox="0 0 27 27" height="27" width="27"><title>karaoke-15.svg</title><rect fill="none" x="0" y="0" width="27" height="27"></rect><rect x="1" y="1" rx="12.5" ry="12.5" width="25" height="25" stroke="#ffffff" style="stroke-linejoin:round;stroke-miterlimit:4;" fill="#ffffff" stroke-width="2"></rect><rect x="1" y="1" width="25" height="25" rx="12.5" ry="12.5" fill="#9aa1fa"></rect><path fill="#ffffff" transform="translate(6 6)" d="M12.1,2.952A2.988,2.988,0,0,0,6.99,4.917l3.142,3.142A2.988,2.988,0,0,0,12.1,2.952Z"></path><path fill="#ffffff" transform="translate(6 6)" d="M4.672,8.255,2.55,10.377a1,1,0,0,0,0,1.414l.707.707a1,1,0,0,0,1.414,0l2.121-2.121L8.914,8.255,6.793,6.134Zm.741,2.087-.707-.707L6.793,7.548l.707.707Z"></path></svg>