<?xml version="1.0" encoding="UTF-8"?>
<svg width="23px" height="23px" viewBox="0 0 23 23" version="1.1" xmlns="http://www.w3.org/2000/svg" xmlns:xlink="http://www.w3.org/1999/xlink">
    <!-- Generator: Sketch 52.2 (67145) - http://www.bohemiancoding.com/sketch -->
    <title>marker23</title>
    <desc>Created with Sketch.</desc>
    <defs>
        <path d="M12.0132152,4 C9.23994722,4 7,6.09825146 7,8.69608659 C7,12.143214 10.8132435,17.5636969 11.7732209,18.8875937 C11.879885,19.0374688 12.1198794,19.0374688 12.2265435,18.8875937 C13.1865209,17.5636969 16.9997644,12.143214 16.9997644,8.69608659 C17.0264304,6.09825146 14.7864832,4 12.0132152,4 Z M12,11 C10.8837209,11 10,10.0930233 10,9 C10,7.90697674 10.9069767,7 12,7 C13.0930233,7 14,7.90697674 14,9 C14,10.0930233 13.1162791,11 12,11 Z" id="path-1"></path>
    </defs>
    <g id="marker23" stroke="none" stroke-width="1" fill="none" fill-rule="evenodd">
        <mask id="mask-2" fill="white">
            <use xlink:href="#path-1"></use>
        </mask>
        <use id="Icon" fill="#000000" fill-rule="nonzero" xlink:href="#path-1"></use>
    </g>
</svg>