<svg width="15" height="15" viewBox="0 0 15 15" fill="none" xmlns="http://www.w3.org/2000/svg">
<path d="M5.35714 0C4.28571 0 4.28571 0 4.28571 1.07143L4.29618 4.28571H1.07143V13.9286C1.07143 15 1.07143 15 2.14285 15H12.8571C13.9286 15 13.9286 15 13.9286 13.9286V4.28571H10.7561L10.7143 1.07143C10.7143 0 10.7143 0 9.64285 0H5.35714ZM5.35714 1.07143H9.64285V4.28571H5.35714V1.07143ZM8.04199 5.35714L8.25962 5.3969C9.77937 5.66769 11.0492 6.7301 11.5744 8.17383C11.7041 8.53057 11.7835 8.89831 11.815 9.26409C11.9022 10.2763 11.5709 11.2555 10.9947 12.0808H11.3881C11.6745 12.0813 11.912 12.3167 11.9113 12.6018L11.9092 13.0015C11.9085 13.2864 11.6724 13.521 11.386 13.5205L8.87904 13.5163C8.70316 13.516 8.55628 13.3695 8.55678 13.1941L8.56096 10.6996C8.56147 10.4146 8.79979 10.1801 9.08621 10.1807L9.488 10.1828C9.77436 10.1833 10.0096 10.4188 10.0091 10.7038V10.8378C10.333 10.1598 10.4855 9.40338 10.2162 8.6635C9.86681 7.70253 9.01682 6.99404 8.00432 6.81362L7.78669 6.77595L8.04199 5.35714ZM3.61398 5.76521L6.12095 5.77148C6.29662 5.77198 6.44358 5.91643 6.44322 6.09166L6.43694 8.58608C6.4364 8.87105 6.20012 9.10749 5.91378 9.10714L5.512 9.10505C5.22563 9.10452 4.99267 8.86885 4.99302 8.58398L4.99093 8.44587C4.66544 9.1246 4.51404 9.87887 4.78376 10.6201C5.13336 11.5809 5.9812 12.2938 6.99358 12.4742L7.21331 12.5119L6.95801 13.9286L6.73828 13.8888C5.21834 13.6179 3.9508 12.5535 3.42564 11.1098C2.93613 9.76363 3.2449 8.33216 4.0325 7.20703H3.60979C3.32344 7.2065 3.0882 6.97099 3.08873 6.68597V6.28627C3.08942 6.00144 3.32765 5.76486 3.61398 5.76521Z" fill="#297A52"/>
</svg>
