<svg width="27" height="27" viewBox="0 0 27 27" fill="none" xmlns="http://www.w3.org/2000/svg">
<path d="M11.2857 6C10.2143 6 10.2143 6 10.2143 7.07143L10.2247 10.2857H7V19.9286C7 21 7 21 8.07143 21H18.7857C19.8571 21 19.8571 21 19.8571 19.9286V10.2857H16.6847L16.6429 7.07143C16.6429 6 16.6429 6 15.5714 6H11.2857ZM11.2857 7.07143H15.5714V10.2857H11.2857V7.07143ZM13.9706 11.3571L14.1882 11.3969C15.7079 11.6677 16.9778 12.7301 17.5029 14.1738C17.6327 14.5306 17.7121 14.8983 17.7436 15.2641C17.8308 16.2763 17.4995 17.2555 16.9233 18.0808H17.3167C17.603 18.0813 17.8405 18.3167 17.8398 18.6018L17.8378 19.0015C17.8371 19.2864 17.601 19.521 17.3146 19.5205L14.8076 19.5163C14.6317 19.516 14.4849 19.3695 14.4854 19.1941L14.4895 16.6996C14.49 16.4146 14.7284 16.1801 15.0148 16.1807L15.4166 16.1828C15.7029 16.1833 15.9382 16.4188 15.9376 16.7038V16.8378C16.2615 16.1598 16.4141 15.4034 16.1448 14.6635C15.7954 13.7025 14.9454 12.994 13.9329 12.8136L13.7153 12.7759L13.9706 11.3571ZM9.54255 11.7652L12.0495 11.7715C12.2252 11.772 12.3721 11.9164 12.3718 12.0917L12.3655 14.5861C12.365 14.871 12.1287 15.1075 11.8424 15.1071L11.4406 15.105C11.1542 15.1045 10.9212 14.8688 10.9216 14.584L10.9195 14.4459C10.594 15.1246 10.4426 15.8789 10.7123 16.6201C11.0619 17.5809 11.9098 18.2938 12.9222 18.4742L13.1419 18.5119L12.8866 19.9286L12.6669 19.8888C11.1469 19.6179 9.87937 18.5535 9.35421 17.1098C8.8647 15.7636 9.17348 14.3322 9.96108 13.207H9.53836C9.25201 13.2065 9.01678 12.971 9.0173 12.686V12.2863C9.01799 12.0014 9.25622 11.7649 9.54255 11.7652Z" fill="#297A52"/>
</svg>
