<svg width="23" height="23" viewBox="0 0 23 23" fill="none" xmlns="http://www.w3.org/2000/svg">
<path d="M10.1429 6C9.35714 6 9.35714 6 9.35714 6.78571L9.36482 9.14286H7V16.2143C7 17 7 17 7.78571 17H15.6429C16.4286 17 16.4286 17 16.4286 16.2143V9.14286H14.1021L14.0714 6.78571C14.0714 6 14.0714 6 13.2857 6H10.1429ZM10.1429 6.78571H13.2857V9.14286H10.1429V6.78571ZM12.1117 9.92857L12.2713 9.95773C13.3858 10.1563 14.317 10.9354 14.7021 11.9941C14.7973 12.2558 14.8555 12.5254 14.8786 12.7937C14.9426 13.5359 14.6996 14.254 14.2771 14.8592H14.5656C14.7756 14.8596 14.9497 15.0322 14.9492 15.2414L14.9477 15.5345C14.9472 15.7433 14.7741 15.9154 14.564 15.915L12.7256 15.912C12.5966 15.9117 12.4889 15.8043 12.4893 15.6756L12.4923 13.8464C12.4927 13.6374 12.6675 13.4654 12.8775 13.4658L13.1722 13.4674C13.3822 13.4677 13.5547 13.6404 13.5543 13.8495V13.9477C13.7918 13.4505 13.9037 12.8958 13.7062 12.3532C13.45 11.6485 12.8266 11.129 12.0841 10.9967L11.9245 10.969L12.1117 9.92857ZM8.86454 10.2278L10.703 10.2324C10.8318 10.2328 10.9396 10.3387 10.9393 10.4672L10.9347 12.2965C10.9343 12.5054 10.761 12.6788 10.5511 12.6786L10.2564 12.677C10.0464 12.6766 9.87558 12.5038 9.87584 12.2949L9.8743 12.1936C9.63561 12.6914 9.52459 13.2445 9.72238 13.7881C9.97875 14.4927 10.6005 15.0154 11.3429 15.1477L11.504 15.1754L11.3168 16.2143L11.1557 16.1851C10.0411 15.9865 9.11154 15.2059 8.72642 14.1472C8.36745 13.16 8.59388 12.1102 9.17146 11.2852H8.86147C8.65147 11.2848 8.47897 11.1121 8.47935 10.903V10.6099C8.47986 10.4011 8.65456 10.2276 8.86454 10.2278Z" fill="#297A52"/>
</svg>
