<svg width="11" height="11" viewBox="0 0 11 11" fill="none" xmlns="http://www.w3.org/2000/svg">
<g clip-path="url(#clip0_307_15)">
<path d="M3.92858 0C3.14286 0 3.14286 0 3.14286 0.785714L3.15054 3.14286H0.785721V10.2143C0.785721 11 0.785721 11 1.57144 11H9.42858C10.2143 11 10.2143 11 10.2143 10.2143V3.14286H7.88784L7.85715 0.785714C7.85715 0 7.85715 0 7.07144 0H3.92858ZM3.92858 0.785714H7.07144V3.14286H3.92858V0.785714ZM5.89747 3.92857L6.05707 3.95773C7.17155 4.15631 8.10275 4.93541 8.48787 5.99414C8.58304 6.25575 8.64124 6.52543 8.66435 6.79367C8.7283 7.53593 8.48532 8.25402 8.06279 8.85924H8.35129C8.56128 8.85962 8.73545 9.03221 8.73494 9.24135L8.73341 9.53446C8.7329 9.74335 8.5598 9.91543 8.34976 9.91504L6.51131 9.91197C6.38233 9.91171 6.27461 9.8043 6.27498 9.67564L6.27805 7.8464C6.27842 7.63739 6.45319 7.46543 6.66323 7.46582L6.95788 7.46735C7.16787 7.46774 7.34038 7.64044 7.33999 7.84947V7.94768C7.57752 7.45053 7.68939 6.89582 7.49192 6.35324C7.23567 5.64852 6.61234 5.12896 5.86984 4.99665L5.71025 4.96903L5.89747 3.92857ZM2.65026 4.22782L4.48871 4.23242C4.61753 4.23278 4.7253 4.33872 4.72503 4.46722L4.72043 6.29646C4.72004 6.50544 4.54676 6.67883 4.33678 6.67857L4.04214 6.67704C3.83214 6.67665 3.6613 6.50382 3.66156 6.29492L3.66002 6.19364C3.42133 6.69137 3.31031 7.24451 3.5081 7.78809C3.76447 8.49266 4.38622 9.01543 5.12863 9.14774L5.28977 9.17536L5.10255 10.2143L4.94141 10.1851C3.82679 9.98649 2.89726 9.20591 2.51214 8.14718C2.15317 7.16 2.3796 6.11025 2.95718 5.28516H2.64719C2.43719 5.28477 2.26469 5.11206 2.26507 4.90304V4.60993C2.26558 4.40106 2.44028 4.22756 2.65026 4.22782Z" fill="#297A52"/>
</g>
<defs>
<clipPath id="clip0_307_15">
<rect width="11" height="11" fill="white"/>
</clipPath>
</defs>
</svg>
