<svg xmlns="http://www.w3.org/2000/svg" width="11" height="11" viewBox="0 0 11 11">
  <title>pictos_11px</title>
  <path d="M3.75,0V.8346H2.9151V.4173A.4132.4132,0,0,1,3.3324,0Z"/>
  <rect x="2.9151" y="0.8346" width="0.8346" height="0.8346"/>
  <rect x="2.9151" y="1.6692" width="0.8346" height="0.8346"/>
  <rect x="2.9151" y="2.5038" width="0.8346" height="0.8346"/>
  <rect x="2.9151" y="3.3384" width="0.8346" height="0.8346"/>
  <rect x="2.9151" y="4.173" width="0.8346" height="0.8346"/>
  <rect x="2.9151" y="5.0076" width="0.8346" height="0.8346"/>
  <rect x="2.9151" y="5.8422" width="0.8346" height="0.8346"/>
  <rect x="2.9151" y="6.6768" width="0.8346" height="0.8346"/>
  <rect x="3.7497" width="0.8346" height="0.8346"/>
  <rect x="4.5843" width="0.8346" height="0.8346"/>
  <rect x="5.4189" width="0.8346" height="0.8346"/>
  <path d="M7.0881.4173V.8346H6.2535V0h.4256A.4115.4115,0,0,1,7.0881.4173Z"/>
  <rect x="6.2535" y="0.8346" width="0.8346" height="0.8346"/>
  <rect x="6.2535" y="1.6692" width="0.8346" height="0.8346"/>
  <rect x="6.2535" y="2.5038" width="0.8346" height="0.8346"/>
  <rect x="6.2535" y="3.3384" width="0.8346" height="0.8346"/>
  <rect x="6.2535" y="4.173" width="0.8346" height="0.8346"/>
  <rect x="6.2535" y="5.0076" width="0.8346" height="0.8346"/>
  <rect x="6.2535" y="5.8422" width="0.8346" height="0.8346"/>
  <path d="M7.0881,6.6768v.4173a.4133.4133,0,0,1-.4173.4173H6.2535V6.6768Z"/>
  <rect x="5.4189" y="6.6768" width="0.8346" height="0.8346"/>
  <path d="M5.4189,6.6768v.8346H5.0016a.4133.4133,0,0,1-.4173-.4173V6.6768Z"/>
  <rect x="4.5843" y="5.8422" width="0.8346" height="0.8346"/>
  <rect x="4.5843" y="5.0076" width="0.8346" height="0.8346"/>
  <rect x="4.5843" y="4.173" width="0.8346" height="0.8346"/>
  <rect x="4.5843" y="3.3384" width="0.8346" height="0.8346"/>
  <path d="M5.4189,2.9211v.4173H4.5843V2.9211a.4173.4173,0,0,1,.8346,0Z"/>
  <path d="M8.7573,2.0865v.4173H7.9227V2.0865a.4173.4173,0,0,1,.8346,0Z"/>
  <rect x="7.9227" y="2.5038" width="0.8346" height="0.8346"/>
  <rect x="7.9227" y="3.3384" width="0.8346" height="0.8346"/>
  <rect x="7.9227" y="4.173" width="0.8346" height="0.8346"/>
  <rect x="7.9227" y="5.0076" width="0.8346" height="0.8346"/>
  <rect x="7.9227" y="5.8422" width="0.8346" height="0.8346"/>
  <rect x="7.9227" y="6.6768" width="0.8346" height="0.8346"/>
  <path d="M8.7573,7.5114v.6593a.4723.4723,0,0,1-.0251.15.0309.0309,0,0,0-.0083.0251H7.9227V7.5114Z"/>
  <path d="M2.9151,8.1707V7.5114H3.75v.4924l1.761,1.7527.2587.2587.0668.0667.0668-.0667.2587-.2587,1.761-1.7611L7.99,7.937A.7633.7633,0,0,1,8.1063,7.82l.0584-.0668.5675.5675a.0309.0309,0,0,0-.0083.0251.5956.5956,0,0,1-.0835.1168L6.3035,10.8l-.0584.05a.6318.6318,0,0,1-.8179,0l-.0584-.05L3.0319,8.4628A.508.508,0,0,1,2.9151,8.1707Z"/>
</svg>
