<svg xmlns="http://www.w3.org/2000/svg" width="15" height="14.9961" viewBox="0 0 15 14.9961">
  <title>Grille_pictos_Maps</title>
  <g>
    <path d="M4.6555,0V1.1378H3.5177V.5689A.5634.5634,0,0,1,4.0866,0Z"/>
    <rect x="3.5177" y="1.1378" width="1.1378" height="1.1378"/>
    <rect x="3.5177" y="2.2756" width="1.1378" height="1.1378"/>
    <rect x="3.5177" y="3.4134" width="1.1378" height="1.1378"/>
    <rect x="3.5177" y="4.5512" width="1.1378" height="1.1378"/>
    <rect x="3.5177" y="5.689" width="1.1378" height="1.1378"/>
    <rect x="3.5177" y="6.8267" width="1.1378" height="1.1378"/>
    <rect x="3.5177" y="7.9645" width="1.1378" height="1.1378"/>
    <rect x="3.5177" y="9.1023" width="1.1378" height="1.1378"/>
    <rect x="4.6555" width="1.1378" height="1.1378"/>
    <rect x="5.7933" width="1.1378" height="1.1378"/>
    <rect x="6.9311" width="1.1378" height="1.1378"/>
    <path d="M9.2067.5689v.5689H8.0689V0h.58A.5609.5609,0,0,1,9.2067.5689Z"/>
    <rect x="8.0689" y="1.1378" width="1.1378" height="1.1378"/>
    <rect x="8.0689" y="2.2756" width="1.1378" height="1.1378"/>
    <rect x="8.0689" y="3.4134" width="1.1378" height="1.1378"/>
    <rect x="8.0689" y="4.5512" width="1.1378" height="1.1378"/>
    <rect x="8.0689" y="5.689" width="1.1378" height="1.1378"/>
    <rect x="8.0689" y="6.8267" width="1.1378" height="1.1378"/>
    <rect x="8.0689" y="7.9645" width="1.1378" height="1.1378"/>
    <path d="M9.2067,9.1023v.5689a.5634.5634,0,0,1-.5689.5689H8.0689V9.1023Z"/>
    <rect x="6.9311" y="9.1023" width="1.1378" height="1.1378"/>
    <path d="M6.9311,9.1023V10.24H6.3622a.5634.5634,0,0,1-.5689-.5689V9.1023Z"/>
    <rect x="5.7933" y="7.9645" width="1.1378" height="1.1378"/>
    <rect x="5.7933" y="6.8267" width="1.1378" height="1.1378"/>
    <rect x="5.7933" y="5.689" width="1.1378" height="1.1378"/>
    <rect x="5.7933" y="4.5512" width="1.1378" height="1.1378"/>
    <path d="M6.9311,3.9823v.5689H5.7933V3.9823a.5689.5689,0,1,1,1.1378,0Z"/>
    <path d="M11.4823,2.8445v.5689H10.3445V2.8445a.5689.5689,0,1,1,1.1378,0Z"/>
    <rect x="10.3445" y="3.4134" width="1.1378" height="1.1378"/>
    <rect x="10.3445" y="4.5512" width="1.1378" height="1.1378"/>
    <rect x="10.3445" y="5.689" width="1.1378" height="1.1378"/>
    <rect x="10.3445" y="6.8267" width="1.1378" height="1.1378"/>
    <rect x="10.3445" y="7.9645" width="1.1378" height="1.1378"/>
    <rect x="10.3445" y="9.1023" width="1.1378" height="1.1378"/>
    <path d="M11.4823,10.24v.8988a.6427.6427,0,0,1-.0342.2048.0421.0421,0,0,0-.0113.0342H10.3445V10.24Z"/>
    <path d="M3.5177,11.1389V10.24H4.6555v.6713l2.4007,2.3894.3528.3527.091.091.091-.091.3528-.3527L10.3445,10.9l.091-.08a1.0524,1.0524,0,0,1,.1593-.1593l.08-.091.7737.7736a.0421.0421,0,0,0-.0113.0342.81.81,0,0,1-.1138.1593L8.1372,14.723l-.08.0683a.8612.8612,0,0,1-1.115,0l-.08-.0683L3.677,11.5372A.6932.6932,0,0,1,3.5177,11.1389Z"/>
  </g>
</svg>
