<svg xmlns="http://www.w3.org/2000/svg" width="15" height="15" viewBox="0 0 15 15">
  <title>Grille_pictos_Maps</title>
  <g>
    <path d="M10.3846,1.6538a.5713.5713,0,0,1-.5769.577H5.1923a.577.577,0,0,1,0-1.1539H9.8077A.5713.5713,0,0,1,10.3846,1.6538Z"/>
    <rect x="6.9231" y="1.0769" width="2.3077" height="1.1538"/>
    <rect x="5.7692" y="3.3846" width="1.1538" height="1.1538"/>
    <rect x="4.6154" y="3.3846" width="1.1538" height="1.1538"/>
    <rect x="3.4615" y="3.3846" width="1.1538" height="1.1538"/>
    <rect x="12.092" y="3.2516" width="1.1538" height="7.2366" transform="translate(-1.7382 6.5081) rotate(-27.0309)"/>
    <rect x="1.7541" y="3.2516" width="1.1538" height="7.2366" transform="translate(1.2853 14.0486) rotate(-152.9691)"/>
    <rect x="10.3846" y="3.3846" width="1.1538" height="1.1538"/>
    <rect x="6.9231" y="3.3846" width="2.3077" height="1.1538"/>
    <rect x="9.2308" y="3.3846" width="1.1538" height="1.1538"/>
    <circle cx="9.8077" cy="1.6538" r="0.5769"/>
    <path d="M5.7692,1.6192v.0346a.56.56,0,1,1,0-.0346Z"/>
    <path d="M5.7692,1.0769V3.3846H4.6154V1.6538a.5713.5713,0,0,1,.5769-.5769Z"/>
    <path d="M10.3846,1.6538V3.3846H9.2308V1.0769h.5769A.5713.5713,0,0,1,10.3846,1.6538Z"/>
    <path d="M15,9.1538v3.4616H0V9.1538A1.1572,1.1572,0,0,1,1.1538,8H13.8462A1.1572,1.1572,0,0,1,15,9.1538Z"/>
    <rect x="1.1538" y="12.6154" width="2.3077" height="1.1538"/>
    <rect x="11.5385" y="12.6154" width="2.3077" height="1.1538"/>
    <circle cx="2.3077" cy="13.7692" r="1.1538"/>
    <circle cx="12.6923" cy="13.7692" r="1.1538"/>
    <circle cx="2.3077" cy="10.3077" r="1.1538" fill="#fff"/>
    <circle cx="12.6923" cy="10.3077" r="1.1538" fill="#fff"/>
    <rect x="2.3077" y="6.8462" width="10.3846" height="1.1538"/>
  </g>
</svg>
