<svg xmlns="http://www.w3.org/2000/svg" width="11" height="11" viewBox="0 0 11 11">
  <title>pictos_11px</title>
  <path d="M7.6154.68a.419.419,0,0,1-.4231.4231H3.8077A.419.419,0,0,1,3.3846.68.4189.4189,0,0,1,3.8077.2564H7.1923A.4189.4189,0,0,1,7.6154.68Z"/>
  <rect x="5.0769" y="0.2564" width="1.6923" height="0.8462"/>
  <rect x="4.2308" y="1.9487" width="0.8462" height="0.8462"/>
  <rect x="3.3846" y="1.9487" width="0.8462" height="0.8462"/>
  <rect x="2.5385" y="1.9487" width="0.8462" height="0.8462"/>
  <rect x="8.8675" y="1.8511" width="0.8462" height="5.3068" transform="translate(-1.0323 4.7144) rotate(-27.0309)"/>
  <rect x="1.2864" y="1.8511" width="0.8462" height="5.3068" transform="translate(1.1849 9.2939) rotate(-152.9691)"/>
  <rect x="7.6154" y="1.9487" width="0.8462" height="0.8462"/>
  <rect x="5.0769" y="1.9487" width="1.6923" height="0.8462"/>
  <rect x="6.7692" y="1.9487" width="0.8462" height="0.8462"/>
  <circle cx="7.1923" cy="0.6795" r="0.4231"/>
  <path d="M4.2308.6541V.68a.4231.4231,0,0,1-.8462,0A.4235.4235,0,0,1,4.2308.6541Z"/>
  <path d="M4.2308.2564V1.9487H3.3846V.68A.4189.4189,0,0,1,3.8077.2564Z"/>
  <path d="M7.6154.68V1.9487H6.7692V.2564h.4231A.4189.4189,0,0,1,7.6154.68Z"/>
  <path d="M11,6.18V8.7179H0V6.18a.8487.8487,0,0,1,.8462-.8462h9.3076A.8487.8487,0,0,1,11,6.18Z"/>
  <rect x="0.8462" y="8.7179" width="1.6923" height="0.8462"/>
  <rect x="8.4615" y="8.7179" width="1.6923" height="0.8462"/>
  <circle cx="1.6923" cy="9.5641" r="0.8462"/>
  <circle cx="9.3077" cy="9.5641" r="0.8462"/>
  <circle cx="1.6923" cy="7.0256" r="0.8462" fill="#fff"/>
  <circle cx="9.3077" cy="7.0256" r="0.8462" fill="#fff"/>
  <rect x="1.6923" y="4.4872" width="7.6154" height="0.8462"/>
</svg>
