<svg xmlns="http://www.w3.org/2000/svg" width="11" height="11" viewBox="0 0 11 11">
  <title>pictos_11px</title>
  <path d="M4.26,1.4348v.8265H3.4339V1.8481a.4092.4092,0,0,1,.4132-.4133Z"/>
  <rect x="4.2603" y="1.4348" width="0.8264" height="0.8264"/>
  <rect x="5.0868" y="1.4348" width="0.8264" height="0.8264"/>
  <rect x="5.9132" y="1.4348" width="0.8264" height="0.8264"/>
  <path d="M7.5661,1.8481v.4132H6.74V1.4348h.4215A.4074.4074,0,0,1,7.5661,1.8481Z"/>
  <rect x="3.4339" y="3.0877" width="0.8264" height="0.8264"/>
  <rect x="3.4339" y="2.2613" width="0.8264" height="0.8264"/>
  <rect x="6.7397" y="2.2613" width="0.8264" height="0.8264"/>
  <rect x="2.6074" y="3.0877" width="0.8264" height="0.8264"/>
  <rect x="1.781" y="3.0877" width="0.8264" height="0.8264"/>
  <path d="M1.781,3.0877v.8265H.9545V3.501a.4092.4092,0,0,1,.4133-.4133Z"/>
  <rect x="4.2603" y="3.0877" width="0.8264" height="0.8264"/>
  <rect x="5.0868" y="3.0877" width="0.8264" height="0.8264"/>
  <rect x="5.9132" y="3.0877" width="0.8264" height="0.8264"/>
  <rect x="6.7397" y="3.0877" width="0.8264" height="0.8264"/>
  <rect x="7.5661" y="3.0877" width="0.8264" height="0.8264"/>
  <rect x="8.3926" y="3.0877" width="0.8264" height="0.8264"/>
  <path d="M10.0455,3.501v.4132H9.219V3.0877h.4132A.4092.4092,0,0,1,10.0455,3.501Z"/>
  <rect x="3.4339" y="3.9142" width="0.8264" height="0.8264"/>
  <rect x="2.6074" y="3.9142" width="0.8264" height="0.8264"/>
  <rect x="1.781" y="3.9142" width="0.8264" height="0.8264" fill="#fafafa"/>
  <rect x="0.9545" y="3.9142" width="0.8264" height="0.8264"/>
  <rect x="4.2603" y="3.9142" width="0.8264" height="0.8264"/>
  <rect x="5.0868" y="3.9142" width="0.8264" height="0.8264"/>
  <rect x="5.9132" y="3.9142" width="0.8264" height="0.8264"/>
  <rect x="6.7397" y="3.9142" width="0.8264" height="0.8264"/>
  <rect x="7.5661" y="3.9142" width="0.8264" height="0.8264"/>
  <rect x="8.3926" y="3.9142" width="0.8264" height="0.8264" fill="#fafafa"/>
  <rect x="9.219" y="3.9142" width="0.8264" height="0.8264"/>
  <rect x="3.4339" y="4.7406" width="0.8264" height="0.8264"/>
  <rect x="2.6074" y="4.7406" width="0.8264" height="0.8264"/>
  <rect x="1.781" y="4.7406" width="0.8264" height="0.8264" fill="#fafafa"/>
  <rect x="0.9545" y="4.7406" width="0.8264" height="0.8264"/>
  <rect x="4.2603" y="4.7406" width="0.8264" height="0.8264"/>
  <rect x="5.0868" y="4.7406" width="0.8264" height="0.8264"/>
  <rect x="5.9132" y="4.7406" width="0.8264" height="0.8264"/>
  <rect x="6.7397" y="4.7406" width="0.8264" height="0.8264"/>
  <rect x="7.5661" y="4.7406" width="0.8264" height="0.8264"/>
  <rect x="8.3926" y="4.7406" width="0.8264" height="0.8264" fill="#fafafa"/>
  <rect x="9.219" y="4.7406" width="0.8264" height="0.8264"/>
  <rect x="3.4339" y="5.5671" width="0.8264" height="0.8264"/>
  <rect x="2.6074" y="5.5671" width="0.8264" height="0.8264"/>
  <rect x="1.781" y="5.5671" width="0.8264" height="0.8264" fill="#fafafa"/>
  <rect x="0.9545" y="5.5671" width="0.8264" height="0.8264"/>
  <rect x="4.2603" y="5.5671" width="0.8264" height="0.8264"/>
  <rect x="5.0868" y="5.5671" width="0.8264" height="0.8264"/>
  <rect x="5.9132" y="5.5671" width="0.8264" height="0.8264"/>
  <rect x="6.7397" y="5.5671" width="0.8264" height="0.8264"/>
  <rect x="7.5661" y="5.5671" width="0.8264" height="0.8264"/>
  <rect x="8.3926" y="5.5671" width="0.8264" height="0.8264" fill="#fafafa"/>
  <rect x="9.219" y="5.5671" width="0.8264" height="0.8264"/>
  <rect x="3.4339" y="6.3935" width="0.8264" height="0.8264"/>
  <rect x="2.6074" y="6.3935" width="0.8264" height="0.8264"/>
  <rect x="1.781" y="6.3935" width="0.8264" height="0.8264" fill="#fafafa"/>
  <rect x="0.9545" y="6.3935" width="0.8264" height="0.8264"/>
  <rect x="4.2603" y="6.3935" width="0.8264" height="0.8264"/>
  <rect x="5.0868" y="6.3935" width="0.8264" height="0.8264"/>
  <rect x="5.9132" y="6.3935" width="0.8264" height="0.8264"/>
  <rect x="6.7397" y="6.3935" width="0.8264" height="0.8264"/>
  <rect x="7.5661" y="6.3935" width="0.8264" height="0.8264"/>
  <rect x="8.3926" y="6.3935" width="0.8264" height="0.8264" fill="#fafafa"/>
  <rect x="9.219" y="6.3935" width="0.8264" height="0.8264"/>
  <rect x="3.4339" y="7.22" width="0.8264" height="0.8264"/>
  <rect x="2.6074" y="7.22" width="0.8264" height="0.8264"/>
  <rect x="1.781" y="7.22" width="0.8264" height="0.8264" fill="#fafafa"/>
  <rect x="0.9545" y="7.22" width="0.8264" height="0.8264"/>
  <rect x="4.2603" y="7.22" width="0.8264" height="0.8264"/>
  <rect x="5.0868" y="7.22" width="0.8264" height="0.8264"/>
  <rect x="5.9132" y="7.22" width="0.8264" height="0.8264"/>
  <rect x="6.7397" y="7.22" width="0.8264" height="0.8264"/>
  <rect x="7.5661" y="7.22" width="0.8264" height="0.8264"/>
  <rect x="8.3926" y="7.22" width="0.8264" height="0.8264" fill="#fafafa"/>
  <rect x="9.219" y="7.22" width="0.8264" height="0.8264"/>
  <rect x="3.4339" y="8.0464" width="0.8264" height="0.8264"/>
  <rect x="2.6074" y="8.0464" width="0.8264" height="0.8264"/>
  <rect x="1.781" y="8.0464" width="0.8264" height="0.8264"/>
  <path d="M1.781,8.0464v.8265H1.3678A.4093.4093,0,0,1,.9545,8.46V8.0464Z"/>
  <rect x="4.2603" y="8.0464" width="0.8264" height="0.8264"/>
  <rect x="5.0868" y="8.0464" width="0.8264" height="0.8264"/>
  <rect x="5.9132" y="8.0464" width="0.8264" height="0.8264"/>
  <rect x="6.7397" y="8.0464" width="0.8264" height="0.8264"/>
  <rect x="7.5661" y="8.0464" width="0.8264" height="0.8264"/>
  <rect x="8.3926" y="8.0464" width="0.8264" height="0.8264"/>
  <path d="M10.0455,8.0464V8.46a.4093.4093,0,0,1-.4133.4133H9.219V8.0464Z"/>
  <circle cx="4.2603" cy="4.7406" r="0.8264" fill="#fafafa"/>
  <circle cx="7.1529" cy="6.8067" r="0.4132" fill="#fafafa"/>
  <rect x="3.2495" y="6.3935" width="2.4793" height="1.6529" transform="translate(-1.875 1.5828) rotate(-16.5946)" fill="#fafafa"/>
</svg>
