<svg xmlns="http://www.w3.org/2000/svg" width="15" height="15" viewBox="0 0 15 15">
  <title>Grille_pictos_Maps</title>
  <g>
    <path d="M5.7273,2.0418V3.2236H4.5455V2.6327a.5851.5851,0,0,1,.5909-.5909Z"/>
    <rect x="5.7273" y="2.0418" width="1.1818" height="1.1818"/>
    <rect x="6.9091" y="2.0418" width="1.1818" height="1.1818"/>
    <rect x="8.0909" y="2.0418" width="1.1818" height="1.1818"/>
    <path d="M10.4545,2.6327v.5909H9.2727V2.0418h.6028A.5825.5825,0,0,1,10.4545,2.6327Z"/>
    <rect x="4.5455" y="4.4055" width="1.1818" height="1.1818"/>
    <rect x="4.5455" y="3.2236" width="1.1818" height="1.1818"/>
    <rect x="9.2727" y="3.2236" width="1.1818" height="1.1818"/>
    <rect x="3.3636" y="4.4055" width="1.1818" height="1.1818"/>
    <rect x="2.1818" y="4.4055" width="1.1818" height="1.1818"/>
    <path d="M2.1818,4.4055V5.5873H1V4.9964a.5851.5851,0,0,1,.5909-.5909Z"/>
    <rect x="5.7273" y="4.4055" width="1.1818" height="1.1818"/>
    <rect x="6.9091" y="4.4055" width="1.1818" height="1.1818"/>
    <rect x="8.0909" y="4.4055" width="1.1818" height="1.1818"/>
    <rect x="9.2727" y="4.4055" width="1.1818" height="1.1818"/>
    <rect x="10.4545" y="4.4055" width="1.1818" height="1.1818"/>
    <rect x="11.6364" y="4.4055" width="1.1818" height="1.1818"/>
    <path d="M14,4.9964v.5909H12.8182V4.4055h.5909A.5851.5851,0,0,1,14,4.9964Z"/>
    <rect x="4.5455" y="5.5873" width="1.1818" height="1.1818"/>
    <rect x="3.3636" y="5.5873" width="1.1818" height="1.1818"/>
    <rect x="2.1818" y="5.5873" width="1.1818" height="1.1818" fill="#fafafa"/>
    <rect x="1" y="5.5873" width="1.1818" height="1.1818"/>
    <rect x="5.7273" y="5.5873" width="1.1818" height="1.1818"/>
    <rect x="6.9091" y="5.5873" width="1.1818" height="1.1818"/>
    <rect x="8.0909" y="5.5873" width="1.1818" height="1.1818"/>
    <rect x="9.2727" y="5.5873" width="1.1818" height="1.1818"/>
    <rect x="10.4545" y="5.5873" width="1.1818" height="1.1818"/>
    <rect x="11.6364" y="5.5873" width="1.1818" height="1.1818" fill="#fafafa"/>
    <rect x="12.8182" y="5.5873" width="1.1818" height="1.1818"/>
    <rect x="4.5455" y="6.7691" width="1.1818" height="1.1818"/>
    <rect x="3.3636" y="6.7691" width="1.1818" height="1.1818"/>
    <rect x="2.1818" y="6.7691" width="1.1818" height="1.1818" fill="#fafafa"/>
    <rect x="1" y="6.7691" width="1.1818" height="1.1818"/>
    <rect x="5.7273" y="6.7691" width="1.1818" height="1.1818"/>
    <rect x="6.9091" y="6.7691" width="1.1818" height="1.1818"/>
    <rect x="8.0909" y="6.7691" width="1.1818" height="1.1818"/>
    <rect x="9.2727" y="6.7691" width="1.1818" height="1.1818"/>
    <rect x="10.4545" y="6.7691" width="1.1818" height="1.1818"/>
    <rect x="11.6364" y="6.7691" width="1.1818" height="1.1818" fill="#fafafa"/>
    <rect x="12.8182" y="6.7691" width="1.1818" height="1.1818"/>
    <rect x="4.5455" y="7.9509" width="1.1818" height="1.1818"/>
    <rect x="3.3636" y="7.9509" width="1.1818" height="1.1818"/>
    <rect x="2.1818" y="7.9509" width="1.1818" height="1.1818" fill="#fafafa"/>
    <rect x="1" y="7.9509" width="1.1818" height="1.1818"/>
    <rect x="5.7273" y="7.9509" width="1.1818" height="1.1818"/>
    <rect x="6.9091" y="7.9509" width="1.1818" height="1.1818"/>
    <rect x="8.0909" y="7.9509" width="1.1818" height="1.1818"/>
    <rect x="9.2727" y="7.9509" width="1.1818" height="1.1818"/>
    <rect x="10.4545" y="7.9509" width="1.1818" height="1.1818"/>
    <rect x="11.6364" y="7.9509" width="1.1818" height="1.1818" fill="#fafafa"/>
    <rect x="12.8182" y="7.9509" width="1.1818" height="1.1818"/>
    <rect x="4.5455" y="9.1327" width="1.1818" height="1.1818"/>
    <rect x="3.3636" y="9.1327" width="1.1818" height="1.1818"/>
    <rect x="2.1818" y="9.1327" width="1.1818" height="1.1818" fill="#fafafa"/>
    <rect x="1" y="9.1327" width="1.1818" height="1.1818"/>
    <rect x="5.7273" y="9.1327" width="1.1818" height="1.1818"/>
    <rect x="6.9091" y="9.1327" width="1.1818" height="1.1818"/>
    <rect x="8.0909" y="9.1327" width="1.1818" height="1.1818"/>
    <rect x="9.2727" y="9.1327" width="1.1818" height="1.1818"/>
    <rect x="10.4545" y="9.1327" width="1.1818" height="1.1818"/>
    <rect x="11.6364" y="9.1327" width="1.1818" height="1.1818" fill="#fafafa"/>
    <rect x="12.8182" y="9.1327" width="1.1818" height="1.1818"/>
    <rect x="4.5455" y="10.3145" width="1.1818" height="1.1818"/>
    <rect x="3.3636" y="10.3145" width="1.1818" height="1.1818"/>
    <rect x="2.1818" y="10.3145" width="1.1818" height="1.1818" fill="#fafafa"/>
    <rect x="1" y="10.3145" width="1.1818" height="1.1818"/>
    <rect x="5.7273" y="10.3145" width="1.1818" height="1.1818"/>
    <rect x="6.9091" y="10.3145" width="1.1818" height="1.1818"/>
    <rect x="8.0909" y="10.3145" width="1.1818" height="1.1818"/>
    <rect x="9.2727" y="10.3145" width="1.1818" height="1.1818"/>
    <rect x="10.4545" y="10.3145" width="1.1818" height="1.1818"/>
    <rect x="11.6364" y="10.3145" width="1.1818" height="1.1818" fill="#fafafa"/>
    <rect x="12.8182" y="10.3145" width="1.1818" height="1.1818"/>
    <rect x="4.5455" y="11.4964" width="1.1818" height="1.1818"/>
    <rect x="3.3636" y="11.4964" width="1.1818" height="1.1818"/>
    <rect x="2.1818" y="11.4964" width="1.1818" height="1.1818"/>
    <path d="M2.1818,11.4964v1.1818H1.5909A.5852.5852,0,0,1,1,12.0873v-.5909Z"/>
    <rect x="5.7273" y="11.4964" width="1.1818" height="1.1818"/>
    <rect x="6.9091" y="11.4964" width="1.1818" height="1.1818"/>
    <rect x="8.0909" y="11.4964" width="1.1818" height="1.1818"/>
    <rect x="9.2727" y="11.4964" width="1.1818" height="1.1818"/>
    <rect x="10.4545" y="11.4964" width="1.1818" height="1.1818"/>
    <rect x="11.6364" y="11.4964" width="1.1818" height="1.1818"/>
    <path d="M14,11.4964v.5909a.5852.5852,0,0,1-.5909.5909h-.5909V11.4964Z"/>
    <circle cx="5.7273" cy="6.7691" r="1.1818" fill="#fafafa"/>
    <circle cx="9.8636" cy="9.7236" r="0.5909" fill="#fafafa"/>
    <rect x="4.2818" y="9.1327" width="3.5455" height="2.3636" transform="translate(-2.6936 2.1588) rotate(-16.5946)" fill="#fafafa"/>
  </g>
</svg>
